# xmcd
#
# Track frame offsets:
#	150
#	13522
#	27241
#	38281
#	49990
#	62966
#	74845
#	86540
#	98413
#	108202
#	121139
#	132993
#	145219
#	151222
#	166951
#
# Disc length: 2373 seconds
#
# Revision: 1
# Processed by: cddbd v1.5.2PL0 Copyright (c) Steve Scherf et al.
# Submitted via: audiograbber 1.83.01
#
DISCID=bf09430f
DTITLE=Charley Pride - Country Music Superstars
DYEAR=2005
DGENRE=Country
TTITLE0=Kaw-Liga
TTITLE1=I'm So Afraid of Losing You
TTITLE2=Oklahoma Morning
TTITLE3=It's Going to Take a Little Bit Longer
TTITLE4=Crystal Chandeliers
TTITLE5=Shutters and Boards
TTITLE6=Happiness of Having You
TTITLE7=My Eyes Can Only See as Far as You
TTITLE8=Kiss an Angel Good Morning
TTITLE9=Help Me Make It Through the Night
TTITLE10=Louisiana Man
TTITLE11=There Goes My Everything
TTITLE12=Lovesick Blues
TTITLE13=Me and Bobby McGee
TTITLE14=Mississippi Cotton Picking Delta Town
EXTD=
EXTT0=
EXTT1=
EXTT2=
EXTT3=
EXTT4=
EXTT5=
EXTT6=
EXTT7=
EXTT8=
EXTT9=
EXTT10=
EXTT11=
EXTT12=
EXTT13=
EXTT14=
PLAYORDER=
